<?xml version="1.0" encoding="utf-8"?>
<!-- Generator: Adobe Illustrator 19.0.0, SVG Export Plug-In . SVG Version: 6.00 Build 0)  -->
<svg version="1.1" baseProfile="tiny" id="Layer_1" xmlns="http://www.w3.org/2000/svg" xmlns:xlink="http://www.w3.org/1999/xlink"
	 x="0px" y="0px" viewBox="0 0 113 107" xml:space="preserve">
<g>
	<path fill="#FEFEFE" d="M112.3,57.6c-0.1,2.7-0.5,5.4-1.2,8c-0.8,3.1-1.7,6.2-3.1,9.2c-0.9,2-1.9,4-3.1,5.9
		c-0.9,1.4-1.7,2.8-2.8,4.1c-1.8,2.2-3.6,4.4-5.6,6.4c-2.2,2.2-4.7,4-7.1,5.9c-0.8,0.6-1.7,1.2-2.6,1.7c-3.1,1.6-6.1,3.5-9.5,4.6
		c-3.8,1.3-7.7,2.6-11.7,3c-4.8,0.6-9.7,1-14.5,0.3c-2.6-0.3-5.3-0.7-7.8-1.3c-4.5-1.1-8.8-2.6-12.9-4.7c-1.5-0.8-3.1-1.6-4.5-2.6
		c-1.5-1.1-3-2.1-4.5-3.3c-2.4-1.9-4.6-3.9-6.7-6.1c-1.1-1.2-2.1-2.4-3.1-3.6c-1.2-1.4-2-2.9-3-4.4C7.4,79,6.5,77,5.5,75.1
		c-1.5-2.9-2.3-6-3.3-9.1C1,61.9,0.7,57.6,0.6,53.8c0-4.5,0.3-8.5,1.4-12.3c0.8-3.1,1.7-6.2,3.1-9.1c1-1.9,1.9-3.9,3.1-5.7
		c1-1.5,1.9-3,3-4.4c1.9-2.4,3.9-4.8,6.2-6.8c2-1.8,4.1-3.5,6.3-5.1c1.9-1.4,4.1-2.5,6.2-3.6c1.9-1,3.8-2,5.9-2.6
		c3.9-1.2,7.7-2.5,11.8-3c4.5-0.5,9.1-0.8,13.7-0.4c1.3,0.1,2.6,0.4,4,0.6c4.7,0.6,9.1,1.9,13.5,3.7c2.5,1,4.9,2.2,7.2,3.6
		c1.1,0.7,2.1,1.4,3.2,2.2c2,1.4,3.9,2.9,5.7,4.5c2.4,2.2,4.7,4.5,6.7,7.1c1.1,1.4,2,2.8,3,4.3c1.2,1.7,2.1,3.7,3,5.5
		c1.6,3.2,2.6,6.6,3.5,10C112.3,47.3,112.6,52.4,112.3,57.6z"/>
	<path d="M112.3,57.6c-0.1,2.7-0.5,5.4-1.2,8c-0.8,3.1-1.7,6.2-3.1,9.2c-0.9,2-1.9,4-3.1,5.9c-0.9,1.4-1.7,2.8-2.8,4.1
		c-1.8,2.2-3.6,4.4-5.6,6.4c-2.2,2.2-4.7,4-7.1,5.9c-0.8,0.6-1.7,1.2-2.6,1.7c-3.1,1.6-6.1,3.5-9.5,4.6c-3.8,1.3-7.7,2.6-11.7,3
		c-4.8,0.6-9.7,1-14.5,0.3c-2.6-0.3-5.3-0.7-7.8-1.3c-4.5-1.1-8.8-2.6-12.9-4.7c-1.5-0.8-3.1-1.6-4.5-2.6c-1.5-1.1-3-2.1-4.5-3.3
		c-2.4-1.9-4.6-3.9-6.7-6.1c-1.1-1.2-2.1-2.4-3.1-3.6c-1.2-1.4-2-2.9-3-4.4C7.4,79,6.5,77,5.5,75.1c-1.5-2.9-2.3-6-3.3-9.1
		C1,61.9,0.7,57.6,0.6,53.8c0-4.5,0.3-8.5,1.4-12.3c0.8-3.1,1.7-6.2,3.1-9.1c1-1.9,1.9-3.9,3.1-5.7c1-1.5,1.9-3,3-4.4
		c1.9-2.4,3.9-4.8,6.2-6.8c2-1.8,4.1-3.5,6.3-5.1c1.9-1.4,4.1-2.5,6.2-3.6c1.9-1,3.8-2,5.9-2.6c3.9-1.2,7.7-2.5,11.8-3
		c4.5-0.5,9.1-0.8,13.7-0.4c1.3,0.1,2.6,0.4,4,0.6c4.7,0.6,9.1,1.9,13.5,3.7c2.5,1,4.9,2.2,7.2,3.6c1.1,0.7,2.1,1.4,3.2,2.2
		c2,1.4,3.9,2.9,5.7,4.5c2.4,2.2,4.7,4.5,6.7,7.1c1.1,1.4,2,2.8,3,4.3c1.2,1.7,2.1,3.7,3,5.5c1.6,3.2,2.6,6.6,3.5,10
		C112.3,47.3,112.6,52.4,112.3,57.6z"/>
	<path fill="#FEFEFE" d="M60.9,64.3c0,3.4,0,6.9,0,10.3c0,0.7-0.3,0.9-0.8,1.2c-1.5,0.7-2.8,1.6-4.2,2.4c-1.6,0.9-3.1,1.8-4.8,2.6
		c-1.6,0.8-3.3,1.5-4.9,2.2c-1.3,0.5-2.7,1.1-4.1,1.2c-0.3,0-0.6,0-0.8-0.1c-1.5-0.8-3.1-1.5-4.6-2.3c-2.2-1.2-4.5-2.4-6.7-3.6
		c-0.3-0.2-0.7-0.4-1-0.6c-1.9-1.1-3.6-2.4-5.3-3.8c-1-0.9-1.3-2-1.5-3.2c-0.8-3.8-0.8-7.6-0.5-11.5c0.2-2.7,0.5-5.4,1-8.1
		c0.1-0.7,0.6-0.9,1-1.2c0.5-0.3,1-0.6,1.5-0.8c3.6-1.9,7.3-3.8,10.9-5.5c1.6-0.8,3.3-1.6,4.9-2.4c0.2-0.1,0.3-0.2,0.5,0
		c1.7,1.6,3.7,3,5.7,4.2c2.4,1.5,4.9,3,7.4,4.5c1.9,1.1,3.9,2.2,5.8,3.3c0.4,0.2,0.5,0.4,0.5,0.9c0,3.5,0,7,0,10.5
		C61,64.3,61,64.3,60.9,64.3z"/>
	<path fill="#FEFEFE" d="M82.9,42.3c0,0.1,0,0.1,0,0.2c0,0.7-0.2,1.2-1,1.5c-2.6,1.2-5.2,2.6-7.8,3.8c-3.1,1.3-6.1,2.7-9.3,3.7
		c-0.5,0.2-1.1,0.3-1.6,0.4c-0.5,0.1-0.9,0-1.3-0.2c-2.1-1.3-4.3-2.5-6.5-3.8c-2.1-1.2-4.3-2.5-6.4-3.8c-1.8-1.2-3.6-2.3-5.2-3.6
		c-0.8-0.7-1.2-1.4-1.2-2.5c0.1-2.5,0.2-5,0.5-7.4c0.2-2.4,0.4-4.7,0.6-7.1c0.1-0.9,0.2-1.7,0.3-2.6c0-0.3,0.2-0.5,0.5-0.7
		c1.9-1.3,3.9-2.5,6-3.5c3.4-1.5,6.8-2.9,10.4-3.6c1.6-0.3,3.2-0.2,4.7,0.5c2.6,1.3,5.2,2.4,7.8,3.7c2.1,1.1,4.2,2.3,6.2,3.6
		c1.4,0.9,2.5,2,3.6,3.2c0.3,0.3,0.3,0.6,0.3,1c0,5.5,0.1,11.1-0.3,16.6C82.9,41.9,83.1,42.1,82.9,42.3z"/>
	<path fill="#FEFEFE" d="M81.8,87.5c0,1.7,0,3.4,0,5.2c0,0.6-0.3,1-0.7,1.3c-0.8,0.5-1.6,0.9-2.3,1.4c-2.2,1.4-4.5,2.5-6.8,3.5
		c-2.2,0.9-4.5,1.9-6.7,2.8c-1.4,0.6-2.7,0.6-4.1,0.4c-4.6-0.8-9.2-1.3-13.7-2.7c-1-0.3-2.1-0.7-3.1-1.1c-0.3-0.1-0.4-0.3-0.5-0.6
		c-0.5-3.1-0.8-6.3-1.3-9.4c-0.1-0.6-0.3-1.2-0.4-1.8c0-0.3,0-0.4,0.3-0.4c1.9-0.3,3.6-1,5.3-1.7c1.4-0.6,2.7-1.4,4.2-2
		c1.7-0.7,3.3-1.7,4.9-2.6c1.3-0.8,2.6-1.6,3.9-2.4c0.5-0.3,1-0.5,1.7-0.1c1.8,1.1,3.9,1.6,6,2.1c3.2,0.7,6.5,1.2,9.8,1.6
		c1,0.1,2,0.1,2.9,0.4c0.4,0.1,0.4,0.3,0.4,0.5c0,1.8,0,3.7,0,5.5C81.7,87.5,81.8,87.5,81.8,87.5z"/>
	<path fill="#FEFEFE" d="M95.1,22.3c0.6-0.1,1.1,0.1,1.7,0.5c1.5,1.2,3.1,2.3,4.5,3.5c0.9,0.8,1.6,1.7,2.2,2.7c1.7,2.9,3,5.9,4.1,9
		c0.5,1.4,0.9,2.8,1.3,4.2c0.4,1.4,0.3,2.8,0.1,4.2c-0.3,2.5-0.6,5-1.2,7.5c-0.2,0.9-0.4,1.9-0.6,2.8c-0.1,0.4-0.5,0.6-0.8,0.8
		c-0.9,0.7-2.1,1-3.2,1.4c-2.3,0.8-4.7,0.9-7.1,1.4c-0.2,0-0.3,0-0.4-0.2c-1-1.9-2-3.7-3.2-5.4c-1.1-1.5-2.1-3.1-3.3-4.5
		c-1.1-1.3-2-2.6-3.1-3.9c-0.5-0.6-1.1-1.3-1.6-1.9c-0.1-0.2-0.2-0.3-0.2-0.5c0.8-4.9,0.6-9.8,0.7-14.7c0-1.2,0-2.5,0-3.7
		c0-0.5,0.2-0.7,0.6-0.8c0.9-0.3,1.7-0.7,2.6-0.9C90.6,23.2,92.8,22.4,95.1,22.3z"/>
	<path fill="#FEFEFE" d="M2.6,54.4c0-4,0.2-6.9,0.8-9.7c0.3-1.2,0.9-2.2,2-3c0.7-0.5,1.3-1.2,2.1-1.7c1-0.7,2.1-1.3,3.1-1.9
		c0.3-0.2,0.3-0.1,0.5,0.2c0.9,1.9,1.9,3.8,3.3,5.4c1,1.2,2,2.3,3,3.4c1.1,1.1,2.2,2.2,3.4,3.1c0.1,0.1,0.2,0.2,0.1,0.3
		c-0.5,1.1-0.5,2.3-0.7,3.5c-0.5,3.5-0.7,6.9-0.6,10.4c0.1,2.6,0.3,5.2,1,7.7c0.1,0.3,0,0.4-0.3,0.6c-1.8,0.9-3.5,1.9-5.2,3
		c-0.8,0.5-1.6,1-2.2,1.6c-0.2,0.2-0.3,0.2-0.5,0c-1.2-0.8-2.4-1.8-3.5-2.7C8.2,74,7.6,73.4,7,72.8c-0.6-0.7-1-1.4-1.3-2.2
		C3.4,65.1,2.7,59.3,2.6,54.4z"/>
	<path fill="#FEFEFE" d="M108,61.1c0.2,2.2,0.5,4.4,0.4,6.6c0,1.1-0.5,2-0.9,3c-0.7,2-1.4,4.1-2.5,6c-1,1.7-1.9,3.6-3.1,5.2
		c-1,1.4-2.1,2.8-3.2,4.1c-0.9,1-1.8,2.1-2.7,3c-0.9,0.9-1.8,1.7-3.1,2.1c-2.1,0.7-4.2,1.6-6.4,1.9c-0.8,0.1-1.6,0.1-2.3,0
		c-0.3,0-0.4-0.2-0.4-0.5c0-3.8-0.1-7.5-0.1-11.3c0-0.2,0.1-0.3,0.2-0.5c1.9-1.8,3.6-3.8,5.2-5.8c1.1-1.4,2-3,3-4.5
		c1.4-2.1,2.4-4.4,3.3-6.7c0.2-0.4,0.4-0.9,0.6-1.3c0.1-0.4,0.4-0.3,0.6-0.3c1.9-0.2,3.7-0.7,5.5-1c1-0.2,1.9-0.5,2.9-0.8
		c0.9-0.3,1.8-0.8,2.7-1.3c0.1,0.5,0.1,0.9,0.2,1.3C107.9,60.7,107.9,60.9,108,61.1z"/>
	<path fill="#FEFEFE" d="M26.1,14c0-0.9,0.1-1.8,0.2-2.7c0-0.4,0.2-0.6,0.5-0.8c2.4-1.2,4.7-2.6,7.1-3.7c1.1-0.5,2.3-1,3.4-1.4
		c3.9-1.2,7.8-2.4,11.8-2.8c4.9-0.4,9.7-0.6,14.6,0.1c0.4,0.1,0.5,0.1,0.4,0.6c-0.6,2.3-1,4.6-1.2,7c-0.1,0.4-0.2,0.6-0.6,0.7
		c-3.6,0.4-7,1.4-10.3,2.9c-0.5,0.2-1,0.4-1.5,0.7c-2.6,1.1-5,2.4-7.3,4.1c-0.2,0.1-0.3,0.1-0.5,0c-1.9-0.6-3.9-1-5.9-1.5
		c-2.6-0.6-5.3-0.8-8-0.9c-0.8,0-1.5-0.1-2.3-0.1c-0.3,0-0.3-0.1-0.3-0.4C26.2,15.3,26.2,14.7,26.1,14z"/>
	<path fill="#FEFEFE" d="M24.4,12.3c-0.2,1.4-0.1,2.7,0.1,4.1c0.1,0.4-0.2,0.4-0.4,0.5c-1,0.6-2,1.3-2.9,2.1
		c-1.3,1.1-2.2,2.4-3.3,3.6c-1.2,1.4-2.1,3-3.1,4.6c-1.3,2.1-2.2,4.3-3.1,6.5c-0.3,0.7-0.7,1.3-0.9,2c-0.1,0.2-0.3,0.3-0.4,0.4
		c-2.1,1-4,2.3-5.8,3.8c0.2-1.5,0.9-2.7,1.3-4c0.7-1.8,1.3-3.6,2.3-5.3c1-1.7,1.9-3.5,3-5.1c1-1.4,2-2.8,3.1-4
		c0.9-1,1.8-2.1,2.7-3.1c2.1-2.1,4.4-3.9,6.7-5.7C23.9,12.5,24.1,12.5,24.4,12.3z"/>
	<path fill="#FEFEFE" d="M29,97.7c1,0,2,0.4,3,0.6c3.4,0.8,6.7,1.3,10.2,1.2c0.4,0,0.7,0,1,0.2c4,1.7,8.3,2.7,12.6,3.4
		c2.2,0.3,4.3,0.6,6.5,0.8c0.3,0,0.6,0.1,0.6,0.5c0,0.5-0.3,0.3-0.6,0.3c-4.6,0.5-9.2,0.5-13.8-0.3c-2.8-0.5-5.7-1.1-8.4-2
		c-3.3-1.1-6.6-2.4-9.7-4C29.9,98.3,29.4,98,29,97.7z"/>
	<path fill="#FDFDFD" d="M14.8,85.9c-0.9-0.8-1.5-1.8-2.3-2.8c-1.4-1.8-2.6-3.6-3.6-5.6c-0.1-0.2-0.2-0.4-0.2-0.6
		c0.4,0.3,0.8,0.6,1.2,0.9c0.5,0.4,1,0.9,1.7,1.2c0.2,0.1,0.4,0.3,0.4,0.6c0.5,1.9,1.3,3.7,2.3,5.4c0.2,0.3,0.5,0.5,0.6,0.8
		C14.9,85.9,14.9,85.9,14.8,85.9z"/>
	<path fill="#E3E3E3" d="M97.8,21.2c-0.4-0.2-0.8-0.4-0.7-0.9C97.4,20.6,97.7,20.8,97.8,21.2z"/>
	<path fill="#9C9C9C" d="M82.9,42.3c0-0.2-0.1-0.5,0.2-0.6C83.1,41.9,83.2,42.2,82.9,42.3z"/>
	<path fill="#3F3F3F" d="M108,61.1c-0.3-0.1-0.2-0.3-0.2-0.5C108.1,60.6,108,60.9,108,61.1z"/>
	<path fill="#D7D7D7" d="M14.8,85.9c0,0,0.1-0.1,0.1-0.1c0.2,0.1,0.2,0.3,0.3,0.5C14.9,86.3,14.9,86.1,14.8,85.9z"/>
</g>
</svg>
