<?xml version="1.0" encoding="utf-8"?>
<!-- Generator: Adobe Illustrator 19.0.0, SVG Export Plug-In . SVG Version: 6.00 Build 0)  -->
<svg version="1.1" baseProfile="tiny" id="Layer_1" xmlns="http://www.w3.org/2000/svg" xmlns:xlink="http://www.w3.org/1999/xlink"
	 x="0px" y="0px" viewBox="0 0 168.1 52" xml:space="preserve">
<g id="body_3_">
	<path id="XMLID_18_" fill-rule="evenodd" fill="#010101" d="M23,18V9c0,0-6.5,0-11.9,0C7.3,9,4,9,4,9v10c0,0-3.6-0.3-4,3
		c-0.4,3.1,2,4,2,4c43.7-3.4,66,26,66,26h16V15C56.2,15.7,23,18,23,18z"/>
</g>
<g id="body_4_">
	<polygon id="XMLID_17_" fill-rule="evenodd" fill="#010101" points="14,0 13,0 11,3 11,9 16,9 16,3 	"/>
</g>
<g id="body_5_">
	<path id="XMLID_16_" fill-rule="evenodd" fill="#010101" d="M168,22c-0.4-3.3-4-3-4-3V9c0,0-3.3,0-7.1,0C151.5,9,145,9,145,9v9
		c0,0-33.1-2.3-61-3v37h16c0,0,22.3-29.4,66-26C166,26,168.5,25.1,168,22z"/>
</g>
<g id="body_6_">
	<polygon id="XMLID_15_" fill-rule="evenodd" fill="#010101" points="155,0 154,0 152,3 152,9 157,9 157,3 	"/>
</g>
</svg>
