<?xml version="1.0" encoding="utf-8"?>
<!-- Generator: Adobe Illustrator 19.0.0, SVG Export Plug-In . SVG Version: 6.00 Build 0)  -->
<svg version="1.1" baseProfile="tiny" id="Layer_2" xmlns="http://www.w3.org/2000/svg" xmlns:xlink="http://www.w3.org/1999/xlink"
	 x="0px" y="0px" viewBox="0 0 28 28" xml:space="preserve">
<path fill="#FFFFFF" d="M14,0C6.3,0,0,6.3,0,14s6.3,14,14,14c6.9,0,12.7-5,13.8-11.6v-4.7C26.7,5,20.9,0,14,0z M14,20.1
	c-3.3,0-6.1-2.7-6.1-6.1s2.7-6.1,6.1-6.1c2.5,0,4.7,1.5,5.6,3.7c0.3,0.7,0.5,1.5,0.5,2.4s-0.2,1.6-0.5,2.4
	C18.7,18.5,16.5,20.1,14,20.1z"/>
<path fill="#F15353" d="M28,14c0,0.8-0.1,1.6-0.2,2.4v-4.7C27.9,12.4,28,13.2,28,14z"/>
<g id="Layer_5">
	<path fill="#F15353" d="M27.8,11.6v4.7h-8.2c0.3-0.7,0.5-1.5,0.5-2.4s-0.2-1.6-0.5-2.4H27.8z"/>
</g>
</svg>
