<svg version="1.1" id="Layer_1" xmlns="http://www.w3.org/2000/svg" x="0" y="0" viewBox="0 0 210 204" xml:space="preserve"><style>.st1{fill:#08a650}.st3{fill:#fdc789}</style><path id="bd" d="M179 133H31c-17 0-31-13.9-31-31 0-17 13.9-31 31-31h148c17 0 31 13.9 31 31s-13.9 31-31 31z" fill="#474747"/><path id="shr" class="st1" d="M149.3 132.3c13.8 0 25-11.2 25-25V96.7c0-13.7-11.2-25-25-25-13.7 0-25 11.2-25 25v10.5c0 13.8 11.3 25.1 25 25.1z"/><path id="shl" class="st1" d="M66 132.3c13.8 0 25-11.2 25-25V96.7c0-13.7-11.2-25-25-25-13.7 0-25 11.2-25 25v10.5c0 13.8 11.2 25.1 25 25.1z"/><circle id="by" cx="107" cy="102" r="56" fill="#fff"/><circle id="al" class="st3" cx="38" cy="126" r="24"/><circle id="ar" class="st3" cx="176.3" cy="77.5" r="24"/><g id="hd_x5F_g"><path id="hd" class="st3" d="M77.1 70.3H137c3.9 0 7 3.2 7 7v49.3c0 3.9-3.2 7-7 7H77.1c-3.9 0-7-3.2-7-7V77.3c-.1-3.8 3.1-7 7-7z"/><path id="hr" fill="#8d633a" d="M85 117.4l8.5-1.4 7.9 1.4 11-2 7.1 1 10-1 3.6 2-2.5-11 2.5-6.8-2.5-9 1.4-6.7-9.5 1.5-10.5-1.5-11.1 2.1-6.6-2.1-5.2 2.5-5.7-2.5 3.4 9.4-4 7.3 2.2 7.8z"/></g></svg>