<?xml version="1.0" encoding="utf-8"?>
<!-- Generator: Adobe Illustrator 19.0.0, SVG Export Plug-In . SVG Version: 6.00 Build 0)  -->
<svg version="1.1" baseProfile="tiny" id="Layer_2" xmlns="http://www.w3.org/2000/svg" xmlns:xlink="http://www.w3.org/1999/xlink"
	 x="0px" y="0px" viewBox="0 0 291.2 295.2" xml:space="preserve">
<path fill="#FEFEFE" d="M131.1,295.1c-42.5,0-84.9,0-127.4,0.1c-2.8,0-3.7-0.3-3.7-3.5C0.1,195.6,0.1,99.5,0,3.3C0,0.6,0.6,0,3.3,0
	c94.8,0.1,189.6,0.1,284.3,0c3.2,0,3.5,0.9,3.5,3.7c-0.1,41.5-0.1,83-0.1,124.4c-2.9,0-5.8,0-8.7,0c-7.7-27.4-21.6-51.1-43.4-69.7
	c-40-34-85.3-43.4-135.6-28.6c-3.3,1-5,1.4-6.4-2.8C90.8,8.3,72.6-1,56.1,1.4c-20,3-33,18.5-33,38.3c0,17-0.1,34,0,51
	c0,3.1-0.6,5.8-2.1,8.6c-4.9,9.1-8.7,18.7-11,28.8c-0.5,0.6-2.2,1.2-0.3,1.9c1.2,0.4,2.6,0.2,4,0.2c88.2,0,176.4,0,264.6,0
	c1.5,0,3-0.1,4.5-0.1c5.5-0.9,6.4,2,6.3,6.8c-0.3,15.5-0.1,31-0.1,46.5c0,1.7-1.1,4.2,2,4.9c0,34.5,0,69,0.1,103.5
	c0,3-0.6,3.6-3.6,3.6c-42.5-0.1-85-0.1-127.5-0.1c4.4-2.3,9.5-0.9,13.9-3.1c0.7-0.1,1.4-0.2,2.1-0.3c15.5-3.1,29.9-8.9,43.2-17.4
	c0.9-0.6,1.9-1.2,2.8-1.8c4.6-2.4,8.6-5.6,12.6-8.9c12.5-10.4,23.7-21.9,31.3-36.5c1.1-0.7,2-1.6,2.1-3
	c6.6-10.4,10.8-21.7,14.2-33.8c-5.2,0-10.2,0-15.1,0c-0.7,0-1.4-0.1-2.2-0.1c-14.3,0-28.6,0-42.9,0c-1,0-2.1,0-3.1,0
	c-14.3,0-28.6,0-42.9,0.1c-0.7,0-1.4,0-2.2,0.1c-14.6,0-29.2,0-43.8,0c-0.7,0-1.4,0-2.2-0.1c-14.3,0-28.6,0-42.9-0.1
	c-1,0-2.1,0-3.1,0c-14.3,0-28.6,0-42.9,0c-1,0-2.1,0-3.1,0c-8.6,0-17.2,0-26.2,0c5.4,19.2,13.6,36.4,26.1,51.5
	c0.6,1.5,1.8,2.5,3,3.5c11.9,14.5,26.2,25.9,43.1,34.2c1,0.5,2,1.1,3,1.6c13.5,6.8,27.8,11,42.8,12.7c0.7,0,1.5,0.1,2.2,0.1
	C130.5,294.3,130.8,294.7,131.1,295.1z M257.5,141.1c-9.6,0-17.4,7.9-17.4,17.5c0,9.6,7.8,17.5,17.3,17.5
	c9.8,0.1,17.8-7.9,17.7-17.7C275,148.8,267.1,141.1,257.5,141.1z"/>
<path fill="#020202" d="M130.2,190.3c14.6,0,29.2,0,43.8,0c0,33.9,0,67.8,0,101.7c-4.4,2.2-9.6,0.8-13.9,3.1c-9.7,0-19.3,0-29,0
	c-0.3-0.4-0.6-0.8-0.9-1.2C130.2,259.4,130.2,224.8,130.2,190.3z"/>
<path fill="#E4E4E4" d="M282.4,128.1c2.9,0,5.8,0,8.7,0c0,20,0,40,0,60c-3.1-0.6-1.9-3.1-2-4.9c-0.1-15.5-0.2-31,0.1-46.5
	c0.1-4.9-0.8-7.7-6.3-6.8c-0.3-0.6-0.6-1.2-0.9-1.9L282.4,128.1z"/>
<path fill="#FCC589" d="M10,128.1c2.3-10.1,6.1-19.7,11-28.8c1.5-2.7,2.1-5.4,2.1-8.6c-0.1-17-0.1-34,0-51c0-19.8,13.1-35.4,33-38.3
	C72.6-1,90.8,8.3,97,27.1c1.4,4.2,3.1,3.8,6.4,2.8c50.3-14.8,95.6-5.4,135.6,28.6c21.8,18.5,35.7,42.2,43.4,69.7c0,0-0.4,0-0.4,0
	C191.3,128.1,100.7,128.1,10,128.1z"/>
<path fill="#010101" d="M85.1,190.2c14.3,0,28.6,0,42.9,0.1c0,34.5,0,69-0.1,103.6c-15-1.7-29.3-6-42.8-12.7
	c-0.1-18.8-0.2-37.6-0.3-56.4C84.9,213.1,85,201.7,85.1,190.2z"/>
<path fill="#010101" d="M176.2,190.2c14.3,0,28.6,0,42.9-0.1c0.1,0.8,0.3,1.6,0.3,2.5c0,27.2,0,54.5-0.1,81.7
	c-13.3,8.5-27.7,14.3-43.2,17.4C176.1,257.9,176.1,224.1,176.2,190.2z"/>
<path fill="#010101" d="M39.2,190.2c14.3,0,28.6,0,42.9,0c0,29.7,0,59.5,0,89.2c-16.8-8.3-31.2-19.6-43.1-34.2
	C39,226.9,39.1,208.6,39.2,190.2z"/>
<path fill="#010101" d="M266,227.1c-7.6,14.6-18.8,26.1-31.3,36.5c-4,3.3-8,6.5-12.6,8.9c0-27.4,0-54.9,0-82.3c14.3,0,28.6,0,42.9,0
	c0,10.6,0.1,21.1,0.2,31.7C265.2,223.7,264.5,225.6,266,227.1z"/>
<path fill="#050505" d="M36,241.7c-12.5-15.1-20.8-32.3-26.1-51.5c9,0,17.6,0,26.2,0C36.5,207.4,36.7,224.5,36,241.7z"/>
<path fill="#E2B27B" d="M10,128.1c90.7,0,181.3,0,272,0c0.3,0.6,0.6,1.2,0.9,1.9c-1.5,0.1-3,0.1-4.5,0.1c-88.2,0-176.4,0-264.6,0
	c-1.3,0-2.8,0.3-4-0.2C7.9,129.3,9.5,128.6,10,128.1z"/>
<path fill="#D69509" d="M257.5,141.1c9.6,0,17.5,7.7,17.6,17.3c0.1,9.8-7.9,17.8-17.7,17.7c-9.6-0.1-17.4-8-17.3-17.5
	C240.1,149,247.9,141.1,257.5,141.1z M271.1,158.6c0-7.5-6.1-13.6-13.6-13.5c-7.3,0-13.3,5.9-13.4,13.2c-0.2,7.5,5.9,13.7,13.3,13.8
	C264.9,172.2,271.1,166.1,271.1,158.6z"/>
<path fill="#090909" d="M267.2,190.3c4.9,0,9.8,0,15.1,0c-3.3,12-7.6,23.4-14.2,33.8c-1.4-1.6-0.7-3.5-0.7-5.3
	C267.2,209.3,267.2,199.8,267.2,190.3z"/>
<path fill="#575757" d="M82.1,279.4c0-29.7,0-59.5,0-89.2c1,0,2.1,0,3.1,0c-0.1,11.5-0.3,23-0.3,34.4c0,18.8,0.2,37.6,0.3,56.4
	C84.1,280.5,83.1,280,82.1,279.4z"/>
<path fill="#585858" d="M222.2,190.2c0,27.4,0,54.9,0,82.3c-0.9,0.6-1.9,1.2-2.8,1.8c0-27.2,0-54.5,0.1-81.7c0-0.8-0.2-1.6-0.3-2.5
	C220.1,190.2,221.1,190.2,222.2,190.2z"/>
<path fill="#585858" d="M128,293.8c0-34.5,0-69,0.1-103.6c0.7,0,1.4,0,2.2,0.1c0,34.5,0,69.1,0,103.6
	C129.4,293.9,128.7,293.8,128,293.8z"/>
<path fill="#585858" d="M176.2,190.2c0,33.8-0.1,67.6-0.1,101.5c-0.7,0.1-1.4,0.2-2.1,0.3c0-33.9,0-67.8,0-101.7
	C174.7,190.3,175.4,190.3,176.2,190.2z"/>
<path fill="#585858" d="M36,241.7c0.7-17.2,0.5-34.3,0.1-51.5c1,0,2.1,0,3.1,0c-0.1,18.3-0.1,36.7-0.2,55
	C37.8,244.2,36.6,243.2,36,241.7z"/>
<path fill="#585858" d="M267.2,190.3c0,9.5,0,19,0.2,28.5c0,1.8-0.6,3.7,0.7,5.3c-0.1,1.4-1,2.3-2.1,3c-1.5-1.5-0.8-3.4-0.8-5.2
	c-0.1-10.6-0.1-21.1-0.2-31.7C265.8,190.3,266.5,190.3,267.2,190.3z"/>
<path fill="#A67100" d="M271.1,158.6c0,7.5-6.2,13.6-13.7,13.5c-7.5-0.1-13.5-6.3-13.3-13.8c0.2-7.3,6.1-13.2,13.4-13.2
	C265,145,271.1,151.1,271.1,158.6z M257.4,148.1c-5.7,0.1-10.4,5-10.3,10.7c0.1,5.7,5,10.4,10.7,10.3c5.7-0.1,10.4-5,10.3-10.7
	C268,152.8,263.1,148,257.4,148.1z"/>
<path fill="#D49100" d="M257.4,148.1c5.7-0.1,10.6,4.7,10.7,10.3c0.1,5.7-4.7,10.6-10.3,10.7c-5.7,0.1-10.6-4.7-10.7-10.3
	C247,153.1,251.8,148.2,257.4,148.1z"/>
</svg>
